<?xml version="1.0" encoding="utf-8"?>
<!-- Generator: Adobe Illustrator 28.3.0, SVG Export Plug-In . SVG Version: 6.00 Build 0)  -->
<svg version="1.1" id="Ebene_1" xmlns="http://www.w3.org/2000/svg" xmlns:xlink="http://www.w3.org/1999/xlink" x="0px" y="0px"
	 viewBox="0 0 262.8 290.6" style="enable-background:new 0 0 262.8 290.6;" xml:space="preserve">
<style type="text/css">
	.st0{fill:#0084A4;}
</style>
<path class="st0" d="M29.3,203l102.1,57.8L233.5,203V87.4L131.4,29.7L29.3,87.4C29.3,87.4,29.3,203,29.3,203z M89.8,139.1
	c0-12.2,3.8-22,11.4-29.3s17.7-11,30.3-11c12.6,0,22.6,3.7,30.1,11c7.6,7.3,11.4,17.1,11.4,29.3v49.8h-15.8v-50
	c0-7.8-2.4-14.1-7.1-18.8c-4.7-4.7-11-6.5-18.9-6.5s-13.8,1.8-18.5,6.5c-4.7,4.7-7.1,11-7.1,18.8v50h-16L89.8,139.1L89.8,139.1z
	 M251.5,64.6L142.7,3c-6.9-4-15.6-4-22.6,0L11.3,64.6C4.3,68.5,0,75.8,0,83.7v123.2c0,7.9,4.3,15.2,11.3,19.1l108.8,61.6
	c3.5,2,7.4,3,11.3,3c3.9,0,7.8-1,11.3-3L251.5,226c7-3.9,11.3-11.2,11.3-19.1V83.7C262.8,75.8,258.5,68.5,251.5,64.6L251.5,64.6z
	 M247,210.7l-115.6,65.5L15.8,210.7V79.9l115.6-65.4L247,79.9V210.7L247,210.7z"/>
</svg>
